<svg fill="#1C2033" width="52" height="52" viewBox="0 0 64 64" xmlns="http://www.w3.org/2000/svg"><path d="M55.7002 18.8998C55.6002 18.7998 55.6002 18.7998 55.6002 18.7998C52.9002 31.5998 44.4002 38.4998 30.6002 38.4998H25.0002L21.8002 59.1998H18.8002L18.4002 61.3998C18.3002 62.1998 19.0002 63.0998 19.8002 63.0998H29.8002C30.9002 63.0998 32.0002 62.2998 32.2002 61.0998L32.3002 60.6998L34.1002 48.6998L34.2002 47.9998C34.3002 46.8998 35.3002 45.9998 36.6002 45.9998H38.1002C47.8002 45.9998 55.4002 42.0998 57.6002 30.6998C58.7002 25.6998 58.1002 21.7998 55.7002 18.8998Z"/><path d="M22.2985 37.3L22.1985 37.9C22.2985 36.5 23.5985 35.5 24.8985 35.5H30.4985C41.5985 35.5 50.1985 31 52.8985 17.9C52.9985 17.5 52.9985 17.2 52.9985 16.8C53.6985 12 52.9985 8.6 50.2985 5.7C49.5985 4.9 48.5985 4.2 47.5985 3.5C46.1985 2.7 44.7985 2.1 43.0985 1.8C41.9985 1.5 40.5985 1.4 39.1985 1.2C37.9985 1.1 36.8985 1 35.5985 1H16.4985C15.0985 1 13.9985 2 13.7985 3.2L5.79854 54.1C5.69854 55.2 6.39854 56.1 7.49854 56.1H19.2985L22.2985 37.3Z"/></svg>