<svg fill="#1C2033" width="52" height="52" viewBox="0 0 64 64" xmlns="http://www.w3.org/2000/svg"><path d="M61.5578 15.2544C61.5578 18.8389 58.6514 21.7452 55.067 21.7452C51.4825 21.7452 48.5859 18.8389 48.5859 15.2544C48.5859 11.6699 51.4922 8.76367 55.067 8.76367C58.6418 8.76367 61.5578 11.6699 61.5578 15.2544Z"/><path d="M44.2574 12.368C44.2574 17.5509 40.0626 21.7457 34.8894 21.7457H34.6472V18.1322C34.6472 15.7878 32.7484 13.889 30.404 13.889H25.6376C25.5504 13.3949 25.5117 12.8815 25.5117 12.368C25.5117 7.19478 29.7065 3 34.8894 3C40.0723 3 44.2574 7.19478 44.2574 12.368Z"/><path d="M63.0015 27.3648V41.9545C63.0015 47.5152 58.4967 52.0297 52.936 52.0297H52.8875C51.3569 52.0297 49.9037 51.6906 48.5959 51.0706C46.1158 56.6023 40.6229 60.5161 34.1612 60.6808C27.2248 60.5064 21.4025 56.0113 19.2227 49.8306H30.4023C32.7468 49.8306 34.6456 47.9318 34.6456 45.5874V24.6328H60.2599C61.7808 24.6328 63.0015 25.8535 63.0015 27.3648Z"/><path d="M32.6691 18.113C32.6498 18.0258 32.6304 17.9386 32.6013 17.8514C32.5723 17.7545 32.5335 17.6576 32.4851 17.5608C32.4657 17.5123 32.4366 17.4542 32.4076 17.4058C32.3979 17.3864 32.3979 17.3767 32.3882 17.3573C32.2719 17.1539 32.1266 16.9601 31.9716 16.7954C31.4872 16.311 30.8188 16.001 30.0825 16.001H3.64475C2.1819 16.001 1 17.1829 1 18.6458V45.0739C1 46.5367 2.1819 47.7186 3.64475 47.7186H30.0825C31.5357 47.7186 32.7176 46.5367 32.7176 45.0739V18.6458C32.7176 18.4617 32.6982 18.2873 32.6691 18.113ZM23.8146 26.0375H18.4379V40.4334H15.1634V26.0375H9.90301V23.2474H23.8146V26.0375Z"/></svg>